# Blender v3.6.5 OBJ File: ''
# www.blender.org
mtllib finalWheel1.mtl
o WheelR-F
v 1.577187 0.933630 -3.366307
v 1.577187 0.688558 -3.409520
v 1.577187 0.443485 -3.366307
v 1.577187 0.227972 -3.241881
v 1.577187 0.068012 -3.051248
v 1.577187 -0.017101 -2.817403
v 1.577187 -0.017101 -2.568549
v 1.577187 0.068012 -2.334704
v 1.577187 0.227972 -2.144071
v 1.577187 0.443485 -2.019645
v 1.577187 0.688558 -1.976432
v 1.577187 0.933630 -2.019645
v 1.577187 1.149143 -2.144071
v 1.577187 1.309103 -2.334704
v 1.577187 1.394216 -2.568549
v 1.577187 1.394216 -2.817403
v 1.577187 1.309103 -3.051248
v 1.577187 1.149143 -3.241881
v 2.030017 1.149143 -3.241881
v 2.030017 1.309103 -3.051248
v 2.095937 1.230873 -3.006082
v 2.095937 1.091079 -3.172682
v 2.030017 -0.017101 -2.817403
v 2.030017 -0.017101 -2.568549
v 2.030017 1.149143 -2.144071
v 2.030017 1.309103 -2.334704
v 2.030017 0.068012 -3.051248
v 2.030017 0.933630 -2.019645
v 2.030017 0.933630 -3.366307
v 2.030017 0.688558 -3.409520
v 2.030017 0.227972 -3.241881
v 2.030017 0.688558 -1.976432
v 2.030017 0.443485 -3.366307
v 2.030017 0.443485 -2.019645
v 2.030017 0.227972 -2.144071
v 2.030017 1.394216 -2.817403
v 2.030017 0.068012 -2.334704
v 2.030017 1.394216 -2.568549
v 2.095937 1.128468 -2.615408
v 2.095937 1.075409 -2.469627
v 2.035407 1.075409 -2.469627
v 2.035407 1.128468 -2.615408
v 2.095937 0.688558 -3.319188
v 2.095937 0.474381 -3.281423
v 2.095937 0.286036 -2.213270
v 2.095937 0.474381 -2.104529
v 2.095937 1.305256 -2.801717
v 2.095937 0.146242 -2.379870
v 2.095937 1.305256 -2.584235
v 2.095937 0.071859 -2.584235
v 2.095937 1.230873 -2.379870
v 2.095937 0.071859 -2.801717
v 2.095937 1.091079 -2.213270
v 2.095937 0.146242 -3.006082
v 2.095937 0.902735 -2.104529
v 2.095937 0.902735 -3.281423
v 2.095937 0.286036 -3.172682
v 2.095937 0.688558 -2.066764
v 2.095937 0.975689 -3.035166
v 2.095937 0.841337 -3.112734
v 2.095937 1.075409 -2.916325
v 2.095937 1.128468 -2.770544
v 2.095937 0.975689 -2.350786
v 2.095937 0.841337 -2.273218
v 2.095937 0.688558 -2.246279
v 2.095937 0.535778 -2.273218
v 2.095937 0.401426 -2.350786
v 2.095937 0.301707 -2.469627
v 2.095937 0.248647 -2.615408
v 2.095937 0.248647 -2.770544
v 2.095937 0.301707 -2.916325
v 2.095937 0.401426 -3.035166
v 2.095937 0.535778 -3.112734
v 2.095937 0.688558 -3.139673
v 2.035407 0.599694 -2.448825
v 2.035407 0.521549 -2.493942
v 2.068513 0.521549 -2.493942
v 2.068513 0.599694 -2.448825
v 2.035407 0.248647 -2.770544
v 2.035407 0.248647 -2.615408
v 2.035408 0.975689 -2.350786
v 2.035407 0.301707 -2.916325
v 2.035407 0.841337 -2.273218
v 2.035408 0.975689 -3.035166
v 2.035407 0.841337 -3.112734
v 2.035407 0.401426 -3.035166
v 2.035407 0.688558 -2.246279
v 2.035407 0.688558 -3.139673
v 2.035407 0.535778 -3.112734
v 2.035407 0.535778 -2.273218
v 2.035407 1.075409 -2.916325
v 2.035407 0.401426 -2.350786
v 2.035407 1.128468 -2.770544
v 2.035407 0.301707 -2.469627
v 2.035407 0.855567 -2.892010
v 2.035407 0.777421 -2.937127
v 2.035408 0.913568 -2.822886
v 2.035408 0.944430 -2.738093
v 2.035408 0.944430 -2.647859
v 2.035408 0.913568 -2.563066
v 2.035407 0.855567 -2.493942
v 2.035407 0.777421 -2.448825
v 2.035407 0.688558 -2.433156
v 2.035407 0.463547 -2.563066
v 2.035407 0.432685 -2.647859
v 2.035407 0.432685 -2.738093
v 2.035407 0.463547 -2.822886
v 2.035407 0.521549 -2.892010
v 2.035407 0.580382 -2.937127
v 2.035407 0.688558 -2.952796
v 2.068513 0.777421 -2.937127
v 2.068513 0.855567 -2.892010
v 2.068513 0.913568 -2.822886
v 2.068513 0.944430 -2.738093
v 2.068513 0.944430 -2.647859
v 2.068513 0.913568 -2.563066
v 2.068513 0.855567 -2.493942
v 2.068513 0.777421 -2.448825
v 2.068513 0.688558 -2.433156
v 2.068513 0.463547 -2.563066
v 2.068513 0.432685 -2.647859
v 2.068513 0.432685 -2.738093
v 2.068513 0.463547 -2.822886
v 2.068513 0.521549 -2.892010
v 2.068513 0.599694 -2.937127
v 2.068513 0.688558 -2.952796
vt 0.923917 0.911515
vt 0.923917 0.911515
vt 0.923917 0.911515
vt 0.923917 0.911515
vt 0.923917 0.911515
vt 0.923917 0.911515
vt 0.923917 0.911515
vt 0.923917 0.911515
vt 0.923917 0.911515
vt 0.923917 0.911515
vt 0.923917 0.911515
vt 0.923917 0.911515
vt 0.923917 0.911515
vt 0.923917 0.911515
vt 0.923917 0.911515
vt 0.923917 0.911515
vt 0.923917 0.911515
vt 0.923917 0.911515
vt 0.923917 0.911515
vt 0.923917 0.911515
vt 0.923917 0.911515
vt 0.923917 0.911515
vt 0.923917 0.911515
vt 0.923917 0.911515
vt 0.923917 0.911515
vt 0.923917 0.911515
vt 0.923917 0.911515
vt 0.923917 0.911515
vt 0.923917 0.911515
vt 0.923917 0.911515
vt 0.923917 0.911515
vt 0.923917 0.911515
vt 0.923917 0.911515
vt 0.923917 0.911515
vt 0.923917 0.911515
vt 0.923917 0.911515
vt 0.923917 0.911515
vt 0.923917 0.911515
vt 0.923917 0.911515
vt 0.923917 0.911515
vt 0.923917 0.911515
vt 0.923917 0.911515
vt 0.923917 0.911515
vt 0.923917 0.911515
vt 0.923917 0.911515
vt 0.923917 0.911515
vt 0.923917 0.911515
vt 0.923917 0.911515
vt 0.923917 0.911515
vt 0.923917 0.911515
vt 0.923917 0.911515
vt 0.923917 0.911515
vt 0.923917 0.911515
vt 0.923917 0.911515
vt 0.923917 0.911515
vt 0.923917 0.911515
vt 0.923917 0.911515
vt 0.923917 0.911515
vt 0.923917 0.911515
vt 0.923917 0.911515
vt 0.923917 0.911515
vt 0.923917 0.911515
vt 0.923917 0.911515
vt 0.923917 0.911515
vt 0.923917 0.911515
vt 0.923917 0.911515
vt 0.923917 0.911515
vt 0.923917 0.911515
vt 0.923917 0.911515
vt 0.923917 0.911515
vt 0.923917 0.911515
vt 0.923917 0.911515
vt 0.923917 0.911515
vt 0.923917 0.911515
vt 0.440256 0.595275
vt 0.440256 0.595275
vt 0.440256 0.595275
vt 0.440256 0.595275
vt 0.923917 0.911515
vt 0.923917 0.911515
vt 0.923917 0.911515
vt 0.923917 0.911515
vt 0.923917 0.911515
vt 0.923917 0.911515
vt 0.923917 0.911515
vt 0.923917 0.911515
vt 0.923917 0.911515
vt 0.923917 0.911515
vt 0.923917 0.911515
vt 0.923917 0.911515
vt 0.923917 0.911515
vt 0.923917 0.911515
vt 0.923917 0.911515
vt 0.923917 0.911515
vt 0.923917 0.911515
vt 0.923917 0.911515
vt 0.923917 0.911515
vt 0.923917 0.911515
vt 0.923917 0.911515
vt 0.923917 0.911515
vt 0.923917 0.911515
vt 0.923917 0.911515
vt 0.923917 0.911515
vt 0.923917 0.911515
vt 0.923917 0.911515
vt 0.923917 0.911515
vt 0.923917 0.911515
vt 0.923917 0.911515
vt 0.923917 0.911515
vt 0.923917 0.911515
vt 0.923917 0.911515
vt 0.923917 0.911515
vt 0.440256 0.595275
vt 0.440256 0.595275
vt 0.440256 0.595275
vt 0.440256 0.595275
vt 0.440256 0.595275
vt 0.440256 0.595275
vt 0.440256 0.595275
vt 0.440256 0.595275
vt 0.440256 0.595275
vt 0.440256 0.595275
vt 0.440256 0.595275
vt 0.440256 0.595275
vt 0.440256 0.595275
vt 0.440256 0.595275
vt 0.440256 0.595275
vt 0.440256 0.595275
vt 0.440256 0.595275
vt 0.440256 0.595275
vt 0.440256 0.595275
vt 0.440256 0.595275
vt 0.440256 0.595275
vt 0.440256 0.595275
vt 0.440256 0.595275
vt 0.440256 0.595275
vt 0.440256 0.595275
vt 0.440256 0.595275
vt 0.440256 0.595275
vt 0.440256 0.595275
vt 0.440256 0.595275
vt 0.440256 0.595275
vt 0.440256 0.595275
vt 0.440256 0.595275
vn -1.0000 0.0000 0.0000
vn 0.4992 0.5570 -0.6638
vn 0.4992 0.7504 -0.4332
vn 0.9542 0.2591 -0.1496
vn 0.9542 0.1923 -0.2292
vn 0.0000 -0.9848 0.1736
vn 0.0000 -0.9848 -0.1736
vn 0.4992 -0.8533 -0.1505
vn 0.4992 -0.8533 0.1505
vn 0.0000 0.8660 0.5000
vn 0.0000 0.6428 0.7660
vn 0.4992 0.5570 0.6638
vn 0.4992 0.7504 0.4332
vn 0.0000 -0.8660 -0.5000
vn 0.4992 -0.7504 -0.4332
vn 0.0000 0.3420 0.9397
vn 0.4992 0.2964 0.8142
vn 0.0000 0.0000 -1.0000
vn 0.0000 0.3420 -0.9397
vn 0.4992 0.2964 -0.8142
vn 0.4992 -0.0000 -0.8665
vn 0.0000 -0.6428 -0.7660
vn 0.4992 -0.5570 -0.6638
vn 0.0000 0.0000 1.0000
vn 0.4992 0.0000 0.8665
vn 0.0000 0.6428 -0.7660
vn 0.0000 -0.3420 -0.9397
vn 0.4992 -0.2964 -0.8142
vn 0.0000 -0.3420 0.9397
vn 0.4992 -0.2964 0.8142
vn 0.0000 0.8660 -0.5000
vn 0.0000 -0.6428 0.7660
vn 0.4992 -0.5570 0.6638
vn 0.0000 0.9848 -0.1736
vn 0.4992 0.8533 -0.1505
vn 0.0000 -0.8660 0.5000
vn 0.4992 -0.7504 0.4332
vn 0.0000 0.9848 0.1736
vn 0.4992 0.8533 0.1505
vn 0.9542 0.0000 -0.2992
vn 0.9542 -0.1023 -0.2811
vn 0.9542 -0.1923 0.2292
vn 0.9542 -0.1023 0.2811
vn 0.9542 0.2946 -0.0519
vn 0.9542 -0.2591 0.1496
vn 0.9542 0.2946 0.0519
vn 0.9542 -0.2946 0.0519
vn 0.9542 0.2591 0.1496
vn 0.9542 -0.2946 -0.0519
vn 0.9542 0.1923 0.2292
vn 0.9542 -0.2591 -0.1496
vn 0.9542 0.1023 0.2811
vn 0.9542 0.1023 -0.2811
vn 0.9542 -0.1923 -0.2292
vn 0.9542 -0.0000 0.2992
vn 1.0000 0.0000 0.0000
vn 0.0806 -0.6631 -0.7441
vn 0.0232 0.0085 -0.9997
vn 0.1158 -0.3971 -0.9104
vn 0.0935 -0.3207 -0.9426
usemtl mix
s 1
f 1/1/1 2/2/1 3/3/1 4/4/1 5/5/1 6/6/1 7/7/1 8/8/1 9/9/1 10/10/1 11/11/1 12/12/1 13/13/1 14/14/1 15/15/1 16/16/1 17/17/1 18/18/1
f 19/19/2 20/20/3 21/21/4 22/22/5
f 7/7/6 6/6/7 23/23/8 24/24/9
f 14/14/10 13/13/11 25/25/12 26/26/13
f 6/6/7 5/5/14 27/27/15 23/23/8
f 13/13/11 12/12/16 28/28/17 25/25/12
f 2/2/18 1/1/19 29/29/20 30/30/21
f 5/5/14 4/4/22 31/31/23 27/27/15
f 12/12/16 11/11/24 32/32/25 28/28/17
f 1/1/19 18/18/26 19/19/2 29/29/20
f 4/4/22 3/3/27 33/33/28 31/31/23
f 11/11/24 10/10/29 34/34/30 32/32/25
f 18/18/26 17/17/31 20/20/3 19/19/2
f 3/3/27 2/2/18 30/30/21 33/33/28
f 10/10/29 9/9/32 35/35/33 34/34/30
f 17/17/31 16/16/34 36/36/35 20/20/3
f 9/9/32 8/8/36 37/37/37 35/35/33
f 16/16/34 15/15/38 38/38/39 36/36/35
f 8/8/36 7/7/6 24/24/9 37/37/37
f 15/15/38 14/14/10 26/26/13 38/38/39
f 39/39/7 40/40/14 41/41/14 42/42/7
f 33/33/28 30/30/21 43/43/40 44/44/41
f 34/34/30 35/35/33 45/45/42 46/46/43
f 20/20/3 36/36/35 47/47/44 21/21/4
f 35/35/33 37/37/37 48/48/45 45/45/42
f 36/36/35 38/38/39 49/49/46 47/47/44
f 37/37/37 24/24/9 50/50/47 48/48/45
f 38/38/39 26/26/13 51/51/48 49/49/46
f 24/24/9 23/23/8 52/52/49 50/50/47
f 26/26/13 25/25/12 53/53/50 51/51/48
f 23/23/8 27/27/15 54/54/51 52/52/49
f 25/25/12 28/28/17 55/55/52 53/53/50
f 30/30/21 29/29/20 56/56/53 43/43/40
f 27/27/15 31/31/23 57/57/54 54/54/51
f 28/28/17 32/32/25 58/58/55 55/55/52
f 29/29/20 19/19/2 22/22/5 56/56/53
f 31/31/23 33/33/28 44/44/41 57/57/54
f 32/32/25 34/34/30 46/46/43 58/58/55
f 56/56/53 22/22/5 59/59/56 60/60/56
f 22/22/5 21/21/4 61/61/56 59/59/56
f 21/21/4 47/47/44 62/62/56 61/61/56
f 47/47/44 49/49/46 39/39/56 62/62/56
f 49/49/46 51/51/48 40/40/56 39/39/56
f 51/51/48 53/53/50 63/63/56 40/40/56
f 53/53/50 55/55/52 64/64/56 63/63/56
f 55/55/52 58/58/55 65/65/56 64/64/56
f 58/58/55 46/46/43 66/66/56 65/65/56
f 46/46/43 45/45/42 67/67/56 66/66/56
f 45/45/42 48/48/45 68/68/56 67/67/56
f 48/48/45 50/50/47 69/69/56 68/68/56
f 50/50/47 52/52/49 70/70/56 69/69/56
f 52/52/49 54/54/51 71/71/56 70/70/56
f 54/54/51 57/57/54 72/72/56 71/71/56
f 57/57/54 44/44/41 73/73/56 72/72/56
f 44/44/41 43/43/40 74/74/56 73/73/56
f 43/43/40 56/56/53 60/60/56 74/74/56
f 75/75/29 76/76/32 77/77/32 78/78/29
f 69/69/34 70/70/38 79/79/38 80/80/34
f 40/40/14 63/63/22 81/81/22 41/41/14
f 70/70/38 71/71/10 82/82/10 79/79/38
f 63/63/22 64/64/27 83/83/27 81/81/22
f 60/60/29 59/59/32 84/84/32 85/85/29
f 71/71/10 72/72/11 86/86/11 82/82/10
f 64/64/27 65/65/18 87/87/18 83/83/27
f 74/74/24 60/60/29 85/85/29 88/88/24
f 72/72/11 73/73/16 89/89/16 86/86/11
f 65/65/18 66/66/19 90/90/19 87/87/18
f 59/59/32 61/61/36 91/91/36 84/84/32
f 73/73/16 74/74/24 88/88/24 89/89/16
f 66/66/19 67/67/26 92/92/26 90/90/19
f 61/61/36 62/62/6 93/93/6 91/91/36
f 67/67/26 68/68/31 94/94/31 92/92/26
f 62/62/6 39/39/7 42/42/7 93/93/6
f 68/68/31 69/69/34 80/80/34 94/94/31
f 85/85/56 84/84/56 95/95/56 96/96/56
f 84/84/56 91/91/56 97/97/56 95/95/56
f 91/91/56 93/93/56 98/98/56 97/97/56
f 93/93/56 42/42/56 99/99/56 98/98/56
f 42/42/56 41/41/56 100/100/56 99/99/56
f 41/41/56 81/81/56 101/101/56 100/100/56
f 81/81/56 83/83/56 102/102/56 101/101/56
f 83/83/56 87/87/56 103/103/56 102/102/56
f 87/87/56 90/90/56 75/104/56 103/103/56
f 90/90/56 92/92/56 76/105/56 75/104/56
f 92/92/56 94/94/56 104/106/56 76/105/56
f 94/94/56 80/80/56 105/107/56 104/106/56
f 80/80/56 79/79/56 106/108/56 105/107/56
f 79/79/56 82/82/56 107/109/56 106/108/56
f 82/82/56 86/86/56 108/110/56 107/109/56
f 86/86/56 89/89/56 109/111/56 108/110/56
f 89/89/56 88/88/56 110/112/56 109/111/56
f 88/88/56 85/85/56 96/96/56 110/112/56
f 111/113/56 112/114/56 113/115/56 114/116/56 115/117/56 116/118/56 117/119/56 118/120/56 119/121/56 78/78/56 77/77/56 120/122/56 121/123/56 122/124/56 123/125/56 124/126/56 125/127/56 126/128/56
f 97/129/31 98/130/34 114/116/34 113/115/31
f 76/76/32 104/131/36 120/122/36 77/77/32
f 98/130/34 99/132/38 115/117/38 114/116/34
f 104/131/36 105/133/6 121/123/6 120/122/36
f 99/132/38 100/134/10 116/118/10 115/117/38
f 105/133/6 106/135/7 122/124/7 121/123/6
f 100/134/10 101/136/11 117/119/11 116/118/10
f 106/135/7 107/137/14 123/125/14 122/124/7
f 101/136/11 102/138/16 118/120/16 117/119/11
f 96/139/19 95/140/26 112/114/26 111/113/19
f 107/137/14 108/141/57 124/126/57 123/125/14
f 102/138/16 103/142/24 119/121/24 118/120/16
f 110/143/58 96/139/19 111/113/19 126/128/58
f 108/141/57 109/144/59 125/127/60 124/126/57
f 103/142/24 75/75/29 78/78/29 119/121/24
f 95/140/26 97/129/31 113/115/31 112/114/26
f 109/144/59 110/143/58 126/128/58 125/127/60
