# Blender v3.6.5 OBJ File: ''
# www.blender.org
mtllib finalWheel3.mtl
o WheelsBack.002
v 1.580299 0.935519 2.614448
v 1.580299 1.149461 2.490928
v 1.580299 1.308255 2.301685
v 1.580300 1.392747 2.069544
v 1.580300 1.392747 1.822505
v 1.580299 1.308255 1.590365
v 1.580299 1.149461 1.401121
v 1.580299 0.935519 1.277602
v 1.580299 0.692233 1.234704
v 1.580299 0.448947 1.277602
v 1.580299 0.235004 1.401121
v 1.580299 0.076211 1.590365
v 1.580299 -0.008282 1.822505
v 1.580299 -0.008282 2.069544
v 1.580299 0.076211 2.301685
v 1.580299 0.235004 2.490928
v 1.580299 0.448947 2.614448
v 1.580299 0.692233 2.657346
v 2.029828 1.149461 2.490928
v 2.095268 1.091820 2.422234
v 2.095268 1.230595 2.256848
v 2.029829 1.308254 2.301685
v 2.029828 -0.008282 1.822505
v 2.029828 -0.008282 2.069544
v 2.029829 1.308254 1.590365
v 2.029828 1.149461 1.401121
v 2.029828 0.076211 2.301685
v 2.029828 0.935519 1.277602
v 2.029828 0.692233 2.657346
v 2.029828 0.935519 2.614448
v 2.029828 0.235004 2.490928
v 2.029828 0.692233 1.234704
v 2.029828 0.448947 2.614448
v 2.029828 0.448947 1.277602
v 2.029828 0.235004 1.401121
v 2.029829 1.392747 2.069544
v 2.029828 0.076211 1.590365
v 2.029829 1.392747 1.822505
v 2.095268 1.128937 1.869022
v 2.035180 1.128937 1.869022
v 2.035180 1.076264 1.724304
v 2.095268 1.076264 1.724304
v 2.095268 0.479617 2.530182
v 2.095268 0.692233 2.567672
v 2.095268 0.479617 1.361867
v 2.095268 0.292645 1.469815
v 2.095268 1.304436 2.053973
v 2.095268 0.153870 1.635201
v 2.095268 1.304436 1.838077
v 2.095268 0.080030 1.838077
v 2.095268 1.230595 1.635201
v 2.095268 0.080030 2.053973
v 2.095268 1.091820 1.469815
v 2.095268 0.153870 2.256848
v 2.095268 0.904849 1.361867
v 2.095268 0.904849 2.530182
v 2.095268 0.292645 2.422234
v 2.095268 0.692233 1.324378
v 2.095268 0.843898 2.362723
v 2.095268 0.977271 2.285720
v 2.095268 1.076264 2.167745
v 2.095268 1.128937 2.023028
v 2.095268 0.977271 1.606329
v 2.095268 0.843898 1.529327
v 2.095268 0.692233 1.502584
v 2.095268 0.540567 1.529327
v 2.095268 0.407194 1.606329
v 2.095268 0.308202 1.724304
v 2.095268 0.255529 1.869022
v 2.095268 0.255529 2.023028
v 2.095268 0.308201 2.167745
v 2.095268 0.407194 2.285720
v 2.095268 0.540567 2.362723
v 2.095268 0.692233 2.389465
v 2.035180 0.604017 1.703653
v 2.068044 0.604017 1.703653
v 2.068044 0.526441 1.748442
v 2.035180 0.526441 1.748442
v 2.035180 0.255529 1.869022
v 2.035180 0.255529 2.023028
v 2.035180 0.977271 1.606329
v 2.035180 0.308201 2.167745
v 2.035180 0.843898 1.529327
v 2.035180 0.843898 2.362723
v 2.035180 0.977271 2.285720
v 2.035180 0.407194 2.285720
v 2.035180 0.692233 1.502584
v 2.035180 0.692233 2.389465
v 2.035180 0.540567 2.362723
v 2.035180 0.540567 1.529327
v 2.035180 1.076264 2.167745
v 2.035180 0.407194 1.606329
v 2.035180 1.128937 2.023028
v 2.035180 0.308202 1.724304
v 2.035180 0.780449 2.188396
v 2.035180 0.858024 2.143608
v 2.035180 0.915603 2.074988
v 2.035180 0.946240 1.990813
v 2.035180 0.946240 1.901236
v 2.035180 0.915603 1.817062
v 2.035180 0.858024 1.748442
v 2.035180 0.780449 1.703654
v 2.035180 0.692233 1.688099
v 2.035180 0.468862 1.817062
v 2.035180 0.438225 1.901236
v 2.035180 0.438225 1.990813
v 2.035180 0.468862 2.074988
v 2.035180 0.526441 2.143608
v 2.035180 0.604017 2.188396
v 2.035180 0.692233 2.203951
v 2.068044 0.780449 2.188396
v 2.068044 0.692233 2.203951
v 2.068044 0.604017 2.188396
v 2.068044 0.526441 2.143608
v 2.068044 0.468862 2.074988
v 2.068044 0.438225 1.990813
v 2.068044 0.438225 1.901236
v 2.068044 0.468862 1.817062
v 2.068044 0.692233 1.688099
v 2.068044 0.780449 1.703654
v 2.068044 0.858024 1.748442
v 2.068044 0.915603 1.817062
v 2.068044 0.946240 1.901236
v 2.068044 0.946240 1.990813
v 2.068044 0.915603 2.074988
v 2.068044 0.858024 2.143608
vt 0.923917 0.911515
vt 0.923917 0.911515
vt 0.923917 0.911515
vt 0.923917 0.911515
vt 0.923917 0.911515
vt 0.923917 0.911515
vt 0.923917 0.911515
vt 0.923917 0.911515
vt 0.923917 0.911515
vt 0.923917 0.911515
vt 0.923917 0.911515
vt 0.923917 0.911515
vt 0.923917 0.911515
vt 0.923917 0.911515
vt 0.923917 0.911515
vt 0.923917 0.911515
vt 0.923917 0.911515
vt 0.923917 0.911515
vt 0.923917 0.911515
vt 0.923917 0.911515
vt 0.923917 0.911515
vt 0.923917 0.911515
vt 0.923917 0.911515
vt 0.923917 0.911515
vt 0.923917 0.911515
vt 0.923917 0.911515
vt 0.923917 0.911515
vt 0.923917 0.911515
vt 0.923917 0.911515
vt 0.923917 0.911515
vt 0.923917 0.911515
vt 0.923917 0.911515
vt 0.923917 0.911515
vt 0.923917 0.911515
vt 0.923917 0.911515
vt 0.923917 0.911515
vt 0.923917 0.911515
vt 0.923917 0.911515
vt 0.923917 0.911515
vt 0.923917 0.911515
vt 0.923917 0.911515
vt 0.923917 0.911515
vt 0.923917 0.911515
vt 0.923917 0.911515
vt 0.923917 0.911515
vt 0.923917 0.911515
vt 0.923917 0.911515
vt 0.923917 0.911515
vt 0.923917 0.911515
vt 0.923917 0.911515
vt 0.923917 0.911515
vt 0.923917 0.911515
vt 0.923917 0.911515
vt 0.923917 0.911515
vt 0.923917 0.911515
vt 0.923917 0.911515
vt 0.923917 0.911515
vt 0.923917 0.911515
vt 0.923917 0.911515
vt 0.923917 0.911515
vt 0.923917 0.911515
vt 0.923917 0.911515
vt 0.923917 0.911515
vt 0.923917 0.911515
vt 0.923917 0.911515
vt 0.923917 0.911515
vt 0.923917 0.911515
vt 0.923917 0.911515
vt 0.923917 0.911515
vt 0.923917 0.911515
vt 0.923917 0.911515
vt 0.923917 0.911515
vt 0.923917 0.911515
vt 0.923917 0.911515
vt 0.440256 0.595275
vt 0.440256 0.595275
vt 0.440256 0.595275
vt 0.440256 0.595275
vt 0.923917 0.911515
vt 0.923917 0.911515
vt 0.923917 0.911515
vt 0.923917 0.911515
vt 0.923917 0.911515
vt 0.923917 0.911515
vt 0.923917 0.911515
vt 0.923917 0.911515
vt 0.923917 0.911515
vt 0.923917 0.911515
vt 0.923917 0.911515
vt 0.923917 0.911515
vt 0.923917 0.911515
vt 0.923917 0.911515
vt 0.923917 0.911515
vt 0.923917 0.911515
vt 0.923917 0.911515
vt 0.923917 0.911515
vt 0.923917 0.911515
vt 0.923917 0.911515
vt 0.923917 0.911515
vt 0.923917 0.911515
vt 0.923917 0.911515
vt 0.923917 0.911515
vt 0.923917 0.911515
vt 0.923917 0.911515
vt 0.923917 0.911515
vt 0.923917 0.911515
vt 0.923917 0.911515
vt 0.923917 0.911515
vt 0.923917 0.911515
vt 0.923917 0.911515
vt 0.923917 0.911515
vt 0.923917 0.911515
vt 0.440256 0.595275
vt 0.440256 0.595275
vt 0.440256 0.595275
vt 0.440256 0.595275
vt 0.440256 0.595275
vt 0.440256 0.595275
vt 0.440256 0.595275
vt 0.440256 0.595275
vt 0.440256 0.595275
vt 0.440256 0.595275
vt 0.440256 0.595275
vt 0.440256 0.595275
vt 0.440256 0.595275
vt 0.440256 0.595275
vt 0.440256 0.595275
vt 0.440256 0.595275
vt 0.440256 0.595275
vt 0.440256 0.595275
vt 0.440256 0.595275
vt 0.440256 0.595275
vt 0.440256 0.595275
vt 0.440256 0.595275
vt 0.440256 0.595275
vt 0.440256 0.595275
vt 0.440256 0.595275
vt 0.440256 0.595275
vt 0.440256 0.595275
vt 0.440256 0.595275
vt 0.440256 0.595275
vt 0.440256 0.595275
vt 0.440256 0.595275
vt 0.440256 0.595275
vn -1.0000 0.0000 0.0000
vn 0.4992 0.5570 0.6638
vn 0.9542 0.1923 0.2292
vn 0.9542 0.2591 0.1496
vn 0.4992 0.7504 0.4332
vn 0.0000 -0.9848 -0.1736
vn 0.4992 -0.8533 -0.1505
vn 0.4992 -0.8533 0.1505
vn 0.0000 -0.9848 0.1736
vn 0.0000 0.8660 -0.5000
vn 0.4992 0.7504 -0.4332
vn 0.4992 0.5570 -0.6637
vn 0.0000 0.6428 -0.7660
vn 0.4992 -0.7504 0.4332
vn 0.0000 -0.8660 0.5000
vn 0.4992 0.2964 -0.8142
vn 0.0000 0.3420 -0.9397
vn 0.0000 -0.0000 1.0000
vn 0.4992 0.0000 0.8665
vn 0.4992 0.2964 0.8142
vn 0.0000 0.3420 0.9397
vn 0.4992 -0.5570 0.6638
vn 0.0000 -0.6428 0.7660
vn 0.4992 -0.0000 -0.8665
vn 0.0000 -0.0000 -1.0000
vn 0.0000 0.6428 0.7660
vn 0.4992 -0.2964 0.8142
vn 0.0000 -0.3420 0.9397
vn 0.4992 -0.2964 -0.8142
vn 0.0000 -0.3420 -0.9397
vn 0.0000 0.8660 0.5000
vn 0.4992 -0.5570 -0.6638
vn 0.0000 -0.6428 -0.7660
vn 0.4992 0.8533 0.1505
vn 0.0000 0.9848 0.1736
vn 0.4992 -0.7504 -0.4332
vn 0.0000 -0.8660 -0.5000
vn 0.4992 0.8533 -0.1505
vn 0.0000 0.9848 -0.1736
vn 0.9542 -0.1023 0.2811
vn 0.9542 0.0000 0.2992
vn 0.9542 -0.1023 -0.2811
vn 0.9542 -0.1923 -0.2292
vn 0.9542 0.2946 0.0519
vn 0.9542 -0.2591 -0.1496
vn 0.9542 0.2946 -0.0519
vn 0.9542 -0.2946 -0.0519
vn 0.9542 0.2591 -0.1496
vn 0.9542 -0.2946 0.0519
vn 0.9542 0.1923 -0.2292
vn 0.9542 -0.2591 0.1496
vn 0.9542 0.1023 -0.2811
vn 0.9542 0.1023 0.2811
vn 0.9542 -0.1923 0.2292
vn 0.9542 -0.0000 -0.2992
vn 1.0000 0.0000 0.0000
usemtl mix.003
s 1
f 1/1/1 2/2/1 3/3/1 4/4/1 5/5/1 6/6/1 7/7/1 8/8/1 9/9/1 10/10/1 11/11/1 12/12/1 13/13/1 14/14/1 15/15/1 16/16/1 17/17/1 18/18/1
f 19/19/2 20/20/3 21/21/4 22/22/5
f 13/13/6 23/23/7 24/24/8 14/14/9
f 6/6/10 25/25/11 26/26/12 7/7/13
f 14/14/9 24/24/8 27/27/14 15/15/15
f 7/7/13 26/26/12 28/28/16 8/8/17
f 18/18/18 29/29/19 30/30/20 1/1/21
f 15/15/15 27/27/14 31/31/22 16/16/23
f 8/8/17 28/28/16 32/32/24 9/9/25
f 1/1/21 30/30/20 19/19/2 2/2/26
f 16/16/23 31/31/22 33/33/27 17/17/28
f 9/9/25 32/32/24 34/34/29 10/10/30
f 2/2/26 19/19/2 22/22/5 3/3/31
f 17/17/28 33/33/27 29/29/19 18/18/18
f 10/10/30 34/34/29 35/35/32 11/11/33
f 3/3/31 22/22/5 36/36/34 4/4/35
f 11/11/33 35/35/32 37/37/36 12/12/37
f 4/4/35 36/36/34 38/38/38 5/5/39
f 12/12/37 37/37/36 23/23/7 13/13/6
f 5/5/39 38/38/38 25/25/11 6/6/10
f 39/39/9 40/40/9 41/41/15 42/42/15
f 33/33/27 43/43/40 44/44/41 29/29/19
f 34/34/29 45/45/42 46/46/43 35/35/32
f 22/22/5 21/21/4 47/47/44 36/36/34
f 35/35/32 46/46/43 48/48/45 37/37/36
f 36/36/34 47/47/44 49/49/46 38/38/38
f 37/37/36 48/48/45 50/50/47 23/23/7
f 38/38/38 49/49/46 51/51/48 25/25/11
f 23/23/7 50/50/47 52/52/49 24/24/8
f 25/25/11 51/51/48 53/53/50 26/26/12
f 24/24/8 52/52/49 54/54/51 27/27/14
f 26/26/12 53/53/50 55/55/52 28/28/16
f 29/29/19 44/44/41 56/56/53 30/30/20
f 27/27/14 54/54/51 57/57/54 31/31/22
f 28/28/16 55/55/52 58/58/55 32/32/24
f 30/30/20 56/56/53 20/20/3 19/19/2
f 31/31/22 57/57/54 43/43/40 33/33/27
f 32/32/24 58/58/55 45/45/42 34/34/29
f 56/56/53 59/59/56 60/60/56 20/20/3
f 20/20/3 60/60/56 61/61/56 21/21/4
f 21/21/4 61/61/56 62/62/56 47/47/44
f 47/47/44 62/62/56 39/39/56 49/49/46
f 49/49/46 39/39/56 42/42/56 51/51/48
f 51/51/48 42/42/56 63/63/56 53/53/50
f 53/53/50 63/63/56 64/64/56 55/55/52
f 55/55/52 64/64/56 65/65/56 58/58/55
f 58/58/55 65/65/56 66/66/56 45/45/42
f 45/45/42 66/66/56 67/67/56 46/46/43
f 46/46/43 67/67/56 68/68/56 48/48/45
f 48/48/45 68/68/56 69/69/56 50/50/47
f 50/50/47 69/69/56 70/70/56 52/52/49
f 52/52/49 70/70/56 71/71/56 54/54/51
f 54/54/51 71/71/56 72/72/56 57/57/54
f 57/57/54 72/72/56 73/73/56 43/43/40
f 43/43/40 73/73/56 74/74/56 44/44/41
f 44/44/41 74/74/56 59/59/56 56/56/53
f 75/75/30 76/76/30 77/77/33 78/78/33
f 69/69/35 79/79/35 80/80/39 70/70/39
f 42/42/15 41/41/15 81/81/23 63/63/23
f 70/70/39 80/80/39 82/82/10 71/71/10
f 63/63/23 81/81/23 83/83/28 64/64/28
f 59/59/30 84/84/30 85/85/33 60/60/33
f 71/71/10 82/82/10 86/86/13 72/72/13
f 64/64/28 83/83/28 87/87/18 65/65/18
f 74/74/25 88/88/25 84/84/30 59/59/30
f 72/72/13 86/86/13 89/89/17 73/73/17
f 65/65/18 87/87/18 90/90/21 66/66/21
f 60/60/33 85/85/33 91/91/37 61/61/37
f 73/73/17 89/89/17 88/88/25 74/74/25
f 66/66/21 90/90/21 92/92/26 67/67/26
f 61/61/37 91/91/37 93/93/6 62/62/6
f 67/67/26 92/92/26 94/94/31 68/68/31
f 62/62/6 93/93/6 40/40/9 39/39/9
f 68/68/31 94/94/31 79/79/35 69/69/35
f 84/84/56 95/95/56 96/96/56 85/85/56
f 85/85/56 96/96/56 97/97/56 91/91/56
f 91/91/56 97/97/56 98/98/56 93/93/56
f 93/93/56 98/98/56 99/99/56 40/40/56
f 40/40/56 99/99/56 100/100/56 41/41/56
f 41/41/56 100/100/56 101/101/56 81/81/56
f 81/81/56 101/101/56 102/102/56 83/83/56
f 83/83/56 102/102/56 103/103/56 87/87/56
f 87/87/56 103/103/56 75/104/56 90/90/56
f 90/90/56 75/104/56 78/105/56 92/92/56
f 92/92/56 78/105/56 104/106/56 94/94/56
f 94/94/56 104/106/56 105/107/56 79/79/56
f 79/79/56 105/107/56 106/108/56 80/80/56
f 80/80/56 106/108/56 107/109/56 82/82/56
f 82/82/56 107/109/56 108/110/56 86/86/56
f 86/86/56 108/110/56 109/111/56 89/89/56
f 89/89/56 109/111/56 110/112/56 88/88/56
f 88/88/56 110/112/56 95/95/56 84/84/56
f 111/113/56 112/114/56 113/115/56 114/116/56 115/117/56 116/118/56 117/119/56 118/120/56 77/77/56 76/76/56 119/121/56 120/122/56 121/123/56 122/124/56 123/125/56 124/126/56 125/127/56 126/128/56
f 97/129/31 125/127/31 124/126/35 98/130/35
f 78/78/33 77/77/33 118/120/37 104/131/37
f 98/130/35 124/126/35 123/125/39 99/132/39
f 104/131/37 118/120/37 117/119/6 105/133/6
f 99/132/39 123/125/39 122/124/10 100/134/10
f 105/133/6 117/119/6 116/118/9 106/135/9
f 100/134/10 122/124/10 121/123/13 101/136/13
f 106/135/9 116/118/9 115/117/15 107/137/15
f 101/136/13 121/123/13 120/122/17 102/138/17
f 95/139/21 111/113/21 126/128/26 96/140/26
f 107/137/15 115/117/15 114/116/23 108/141/23
f 102/138/17 120/122/17 119/121/25 103/142/25
f 110/143/18 112/114/18 111/113/21 95/139/21
f 108/141/23 114/116/23 113/115/28 109/144/28
f 103/142/25 119/121/25 76/76/30 75/75/30
f 96/140/26 126/128/26 125/127/31 97/129/31
f 109/144/28 113/115/28 112/114/18 110/143/18
